<svg width="23" height="23" viewBox="0 0 23 23" fill="none" xmlns="http://www.w3.org/2000/svg">
<path d="M4.28244 5.48045C5.30993 4.25401 6.63885 3.28915 8.15498 2.70007C8.05625 2.81706 7.95968 2.93906 7.86534 3.06592L4.28244 5.48045ZM4.28244 5.48045H6.56022H4.28244ZM11.6101 0.867374C5.68099 0.867374 0.867374 5.68099 0.867374 11.6101C0.867374 17.5392 5.68099 22.3528 11.6101 22.3528C17.5392 22.3528 22.3528 17.5392 22.3528 11.6101C22.3528 5.68099 17.5392 0.867374 11.6101 0.867374ZM12.204 17.7397H15.3769C15.093 18.3838 14.7651 18.9571 14.4021 19.4451C13.7546 20.3152 13.0074 20.8995 12.204 21.0937V17.7397ZM8.81808 19.4451C8.45508 18.9571 8.12714 18.3838 7.84327 17.7397H11.0161V21.0937C10.2128 20.8995 9.46557 20.3152 8.81808 19.4451ZM8.15509 20.5203C6.63909 19.9312 5.31003 18.9663 4.28243 17.7397H6.56022C6.92213 18.6629 7.36303 19.479 7.86534 20.1542C7.95973 20.2812 8.05636 20.4032 8.15509 20.5203ZM6.15662 16.5518H3.43256C2.655 15.2691 2.17072 13.7886 2.07324 12.204H5.48957C5.53769 13.7671 5.77404 15.2404 6.15662 16.5518ZM12.204 12.204H16.5424C16.4912 13.7858 16.2365 15.2652 15.825 16.5518H12.204V12.204ZM21.1469 12.204C21.0494 13.7885 20.5652 15.2686 19.7876 16.5518H17.0635C17.4461 15.2404 17.6825 13.7671 17.7306 12.204H21.1469ZM6.67771 12.204H11.0161V16.5518H7.39516C6.9837 15.2652 6.72899 13.7858 6.67771 12.204ZM2.07324 11.0161C2.17072 9.43163 2.65499 7.95153 3.43258 6.66832H6.15662C5.77404 7.97974 5.53769 9.45303 5.48957 11.0161H2.07324ZM12.204 6.66832H15.825C16.2365 7.95497 16.4912 9.4344 16.5424 11.0161H12.204V6.66832ZM17.7306 11.0161C17.6825 9.45303 17.4461 7.97974 17.0635 6.66832H19.7876C20.5652 7.9511 21.0494 9.4316 21.1469 11.0161H17.7306ZM7.39516 6.66832H11.0161V11.0161H6.67771C6.72899 9.4344 6.9837 7.95497 7.39516 6.66832ZM12.204 5.48045V2.12644C13.0074 2.3207 13.7546 2.90491 14.4021 3.77505C14.7651 4.26306 15.093 4.83641 15.3769 5.48045H12.204ZM16.6599 5.48045C16.298 4.55728 15.8571 3.74114 15.3548 3.06593C15.2604 2.939 15.1638 2.81694 15.0651 2.69989C16.5811 3.28896 17.9101 4.25389 18.9377 5.48045H16.6599ZM7.84327 5.48045C8.12714 4.8364 8.45509 4.26305 8.81809 3.77504C9.46558 2.9049 10.2128 2.3207 11.0161 2.12644V5.48045H7.84327Z" fill="#F9F3EF" stroke="#F9F3EF" stroke-width="0.265252"/>
</svg>
