<svg width="22" height="21" viewBox="0 0 22 21" fill="none" xmlns="http://www.w3.org/2000/svg">
<path fill-rule="evenodd" clip-rule="evenodd" d="M0.748047 4.10256C0.748047 1.8359 2.58394 0 4.85061 0H17.1583C19.425 0 21.2609 1.8359 21.2609 4.10256V16.4103C21.2609 18.6769 19.425 20.5128 17.1583 20.5128H4.85061C2.58394 20.5128 0.748047 18.6769 0.748047 16.4103V4.10256ZM4.85061 2.05128C3.71728 2.05128 2.79933 2.96923 2.79933 4.10256V16.4103C2.79933 17.5436 3.71728 18.4615 4.85061 18.4615H17.1583C18.2916 18.4615 19.2096 17.5436 19.2096 16.4103V4.10256C19.2096 2.96923 18.2916 2.05128 17.1583 2.05128H4.85061ZM11.0045 7.17949C9.30702 7.17949 7.92753 8.55897 7.92753 10.2564C7.92753 11.9538 9.30702 13.3333 11.0045 13.3333C12.7019 13.3333 14.0814 11.9538 14.0814 10.2564C14.0814 8.55897 12.7019 7.17949 11.0045 7.17949ZM5.87625 10.2564C5.87625 7.42564 8.17369 5.12821 11.0045 5.12821C13.8352 5.12821 16.1327 7.42564 16.1327 10.2564C16.1327 13.0872 13.8352 15.3846 11.0045 15.3846C8.17369 15.3846 5.87625 13.0872 5.87625 10.2564ZM16.6455 6.15385C17.4968 6.15385 18.1839 5.46667 18.1839 4.61538C18.1839 3.7641 17.4968 3.07692 16.6455 3.07692C15.7942 3.07692 15.107 3.7641 15.107 4.61538C15.107 5.46667 15.7942 6.15385 16.6455 6.15385Z" fill="#F9F3EF"/>
</svg>
