<svg width="21" height="21" viewBox="0 0 21 21" fill="none" xmlns="http://www.w3.org/2000/svg">
<path d="M18.8769 0.258261H1.7641C1.54359 0.248004 1.32308 0.278774 1.11282 0.355697C0.902564 0.43262 0.71282 0.545441 0.548718 0.694158C0.384615 0.842876 0.251282 1.02236 0.158974 1.22236C0.0666664 1.42236 0.0102564 1.63775 0 1.85826V19.0121C0.0153846 19.4736 0.2 19.9147 0.528205 20.2377C0.856411 20.566 1.29231 20.7557 1.75385 20.766H18.8667C19.3179 20.7454 19.7385 20.5506 20.0462 20.2224C20.3538 19.8942 20.5179 19.4583 20.5077 19.007V1.86339C20.5077 1.648 20.4718 1.43775 20.3897 1.23775C20.3077 1.03775 20.1846 0.85826 20.0308 0.709542C19.8769 0.560825 19.6923 0.442876 19.4923 0.365953C19.2923 0.28903 19.0769 0.253133 18.8615 0.263389L18.8769 0.258261ZM6.41538 17.3608H3.43077V8.22236H6.41538V17.3608ZM4.99487 6.83775C4.78461 6.84288 4.57949 6.80698 4.38462 6.73006C4.18974 6.65313 4.01538 6.53518 3.86667 6.39159C3.71795 6.24288 3.60513 6.06852 3.52821 5.87365C3.45128 5.67877 3.42051 5.47365 3.42564 5.26339C3.41538 5.05313 3.45128 4.84288 3.52821 4.648C3.60513 4.45313 3.72308 4.27365 3.8718 4.12493C4.02051 3.97621 4.2 3.86339 4.4 3.78647C4.59487 3.70954 4.80513 3.67877 5.02051 3.68903C5.23077 3.6839 5.4359 3.7198 5.63077 3.79672C5.82564 3.87365 6 3.99159 6.14872 4.13518C6.29744 4.2839 6.41026 4.45826 6.48718 4.65313C6.5641 4.848 6.59487 5.05313 6.58974 5.26339C6.6 5.47365 6.5641 5.6839 6.48718 5.87877C6.41026 6.07365 6.29231 6.25313 6.14359 6.40185C5.99487 6.55057 5.81538 6.66339 5.61538 6.74031C5.42051 6.81724 5.21026 6.848 4.99487 6.83775ZM17.1077 17.3608H14.1077V12.3608C14.1077 11.1711 13.6872 10.3506 12.6205 10.3506C12.2923 10.3506 11.9692 10.4583 11.6974 10.6531C11.4308 10.848 11.2256 11.1147 11.1179 11.4275C11.0359 11.6634 11 11.9095 11.0154 12.1557V17.3608H8.06667V8.22236H11.0154V9.50441C11.2769 9.02236 11.6667 8.62236 12.1436 8.35057C12.6205 8.07877 13.159 7.94031 13.7077 7.9557C15.641 7.9557 17.1026 9.23775 17.1026 11.966V17.3608H17.1077Z" fill="#F9F3EF"/>
</svg>
