<svg width="13" height="13" viewBox="0 0 13 13" fill="none" xmlns="http://www.w3.org/2000/svg">
<path d="M10.4623 8.55652C9.95999 8.55694 9.47789 8.75376 9.11958 9.1047L4.06839 6.861C4.06839 6.78451 4.06839 6.72077 4.06839 6.64428C4.06839 6.56779 4.06839 6.50405 4.06839 6.43393L9.11958 4.18386C9.43596 4.49302 9.84993 4.68347 10.2912 4.72287C10.7324 4.76227 11.1738 4.64818 11.5402 4.39999C11.9067 4.1518 12.1757 3.78481 12.3015 3.36134C12.4273 2.93787 12.4022 2.48404 12.2305 2.07693C12.0587 1.66981 11.7509 1.33452 11.3593 1.12798C10.9677 0.921448 10.5165 0.856412 10.0822 0.94392C9.648 1.03143 9.25753 1.26608 8.97715 1.60803C8.69677 1.94999 8.54377 2.37815 8.54413 2.8198V3.03652L3.49294 5.28022C3.22335 5.01617 2.88152 4.8374 2.51037 4.76635C2.13922 4.6953 1.75528 4.73513 1.40676 4.88085C1.05824 5.02657 0.76066 5.27168 0.551386 5.58542C0.342113 5.89915 0.230469 6.26752 0.230469 6.64428C0.230469 7.02105 0.342113 7.38942 0.551386 7.70315C0.76066 8.01688 1.05824 8.26199 1.40676 8.40771C1.75528 8.55343 2.13922 8.59326 2.51037 8.52221C2.88152 8.45116 3.22335 8.27239 3.49294 8.00835L8.54413 10.2584V10.4688C8.54413 10.847 8.65663 11.2167 8.8674 11.5311C9.07817 11.8456 9.37775 12.0907 9.72825 12.2354C10.0787 12.3802 10.4644 12.418 10.8365 12.3443C11.2086 12.2705 11.5504 12.0884 11.8186 11.8209C12.0869 11.5535 12.2696 11.2128 12.3436 10.8418C12.4176 10.4709 12.3796 10.0864 12.2345 9.73698C12.0893 9.38756 11.8434 9.08891 11.528 8.87879C11.2125 8.66867 10.8417 8.55652 10.4623 8.55652Z" fill="#F9F3EF"/>
</svg>
