<svg width="21" height="16" viewBox="0 0 21 16" fill="none" xmlns="http://www.w3.org/2000/svg">
<path fill-rule="evenodd" clip-rule="evenodd" d="M0.425641 0.991559C0.153846 1.26335 0 1.63771 0 2.02233V14.489C0 14.8736 0.153846 15.248 0.425641 15.5198C0.697436 15.7916 1.07179 15.9454 1.45641 15.9454H19.0513C19.4359 15.9454 19.8103 15.7916 20.0821 15.5198C20.3538 15.248 20.5077 14.8736 20.5077 14.489V2.02233C20.5077 1.63771 20.3538 1.26335 20.0821 0.991559C19.8103 0.719764 19.4359 0.565918 19.0513 0.565918H1.46154C1.07692 0.565918 0.702564 0.719764 0.430769 0.991559H0.425641ZM1.70769 3.35053V14.2377H18.8V3.35053L10.8103 10.6172C10.4974 10.9044 10.0154 10.9044 9.69744 10.6172L1.70769 3.35053ZM17.4462 2.27361H3.06667L9.81026 8.40181C10.0667 8.63258 10.4513 8.63258 10.7077 8.40181L17.4513 2.27361H17.4462Z" fill="#F9F3EF"/>
</svg>
