<svg width="52" height="24" viewBox="0 0 52 24" fill="none" xmlns="http://www.w3.org/2000/svg">
<path d="M0 0.394943H8.42514V2.76035C10.6194 0.789881 12.5632 0 15.2542 0C18.5953 0 20.9365 1.2318 22.7312 3.99216C24.526 1.33 27.0183 0 30.2104 0C32.9511 0 35.3959 1.18271 36.7415 3.25351C37.6377 4.58353 38.0373 6.30849 38.0373 8.72301V24H29.5625V11.3937C29.5625 9.42111 28.5647 8.48604 26.4719 8.48604H26.2732C24.1286 8.48604 23.1826 9.37201 23.1826 11.3446V24H14.7575V11.3937C14.7575 9.47234 13.7597 8.48604 11.7166 8.48604H11.5179C9.37326 8.48604 8.4273 9.32504 8.4273 11.3446V24H0.00216185V0.394943H0Z" fill="#7979BC"/>
<path d="M47.8295 16.0562H47.5725C44.6807 16.0562 43.3632 17.4012 43.3632 20.0057C43.3632 22.6102 44.7238 23.9979 47.5293 23.9979H47.7864C50.635 23.9979 52 22.6956 52 20.0911C52 17.4866 50.594 16.0562 47.8295 16.0562Z" fill="#7979BC"/>
</svg>
